<svg xmlns="http://www.w3.org/2000/svg" width="22.896" height="21.334" viewBox="0 0 22.896 21.334">
  <path id="Tracé_212" data-name="Tracé 212" d="M13.867,24.153l-.418.183-.418-.183C7.652,20.857,2,13.353,2,9.185a6.249,6.249,0,0,1,11.448-3.4A6.249,6.249,0,0,1,24.9,9.185C24.9,13.353,19.244,20.857,13.867,24.153ZM18.652,4.038a5.207,5.207,0,0,0-4.337,2.321l-.866,1.3-.866-1.3A5.208,5.208,0,0,0,3.041,9.185c0,3.676,5.326,10.828,10.407,14.007,5.082-3.179,10.407-10.33,10.407-14A5.2,5.2,0,0,0,18.652,4.038Z" transform="translate(-2 -3.002)" fill="#fff" fill-rule="evenodd"/>
</svg>
